<?xml version="1.0" encoding="utf-8"?>
<!-- Generator: Adobe Illustrator 24.0.1, SVG Export Plug-In . SVG Version: 6.00 Build 0)  -->
<svg version="1.1" id="Layer_1" xmlns="http://www.w3.org/2000/svg" xmlns:xlink="http://www.w3.org/1999/xlink" x="0px" y="0px"
	 viewBox="0 0 96 96" style="enable-background:new 0 0 96 96;" xml:space="preserve">
<style type="text/css">
	.st0{fill:#FFFFFF;}
</style>
<g>
	<ellipse cx="48.4" cy="47.6" rx="44.9" ry="48.4"/>
	<path class="st0" d="M47.9,16.2l-1.4,0.9L15.8,36.6l-1.1,0.7V59l1.1,0.7l30.6,19.5l1.4,0.9l1.4-0.9l30.6-19.5L81,59V37.3l-1.1-0.7
		L49.3,17.2L47.9,16.2z M45.3,23.7v13.2l-13.2,8.4l-10.3-6.6L45.3,23.7z M50.4,23.7l23.4,15l-10.3,6.6l-13.2-8.4V23.7z M47.9,41.1
		l11.1,7l-11.1,7l-11.1-7L47.9,41.1z M19.8,43.1l7.8,5l-7.8,5V43.1z M75.9,43.1v10l-7.8-5L75.9,43.1z M32.2,51l13.1,8.4v13.2
		l-23.4-15L32.2,51z M63.5,51l10.4,6.6l-23.4,15V59.4L63.5,51z"/>
</g>
</svg>
